<svg width="400" height="400" viewBox="0 0 400 400" fill="none" xmlns="http://www.w3.org/2000/svg">
<rect width="400" height="400" fill="white"/>
<circle cx="200" cy="199" r="161.5" fill="white" stroke="#2C2C34" stroke-width="3"/>
<circle cx="200" cy="199" r="79" fill="#6EBAE6"/>
<ellipse cx="183.5" cy="123" rx="14.5" ry="11" fill="#6EBAE6"/>
<ellipse cx="215" cy="124.5" rx="15" ry="11.5" fill="#6EBAE6"/>
<ellipse cx="260.5" cy="157" rx="12.5" ry="13" fill="#6EBAE6"/>
<ellipse cx="268.5" cy="181" rx="12.5" ry="13" fill="#6EBAE6"/>
<ellipse cx="274.5" cy="205.5" rx="11.5" ry="14.5" fill="#6EBAE6"/>
<circle cx="265.5" cy="229.5" r="15.5" fill="#6EBAE6"/>
<circle cx="251.5" cy="249.5" r="15.5" fill="#6EBAE6"/>
<circle cx="233.5" cy="264.5" r="15.5" fill="#6EBAE6"/>
<circle cx="213.5" cy="269.5" r="15.5" fill="#6EBAE6"/>
<circle cx="185.5" cy="270.5" r="15.5" fill="#6EBAE6"/>
<circle cx="166.5" cy="264.5" r="15.5" fill="#6EBAE6"/>
<circle cx="148.5" cy="250.5" r="15.5" fill="#6EBAE6"/>
<circle cx="135.5" cy="229.5" r="15.5" fill="#6EBAE6"/>
<circle cx="129.5" cy="205.5" r="15.5" fill="#6EBAE6"/>
<circle cx="135.5" cy="181.5" r="15.5" fill="#6EBAE6"/>
<circle cx="142.5" cy="160.5" r="15.5" fill="#6EBAE6"/>
<circle cx="159.5" cy="141.5" r="15.5" fill="#6EBAE6"/>
<ellipse cx="240" cy="138" rx="14" ry="12" fill="#6EBAE6"/>
<path d="M121.985 191.404C118.688 187.034 117.59 181.207 119.787 176.109C121.252 171.739 124.549 168.462 128.944 166.641C124.915 159.722 127.113 150.618 134.072 146.612C137.368 144.427 141.397 143.335 145.426 143.699C144.327 137.508 146.891 131.318 152.385 128.04C157.513 124.763 163.739 124.399 168.867 127.312C168.867 126.948 168.867 126.219 168.867 125.855C169.233 117.844 176.193 111.653 184.25 112.017C191.942 111.653 198.901 117.115 200 124.763C201.099 117.115 207.692 112.017 215.383 112.017C223.441 111.653 230.4 117.844 230.767 125.855C230.767 126.219 230.767 126.948 230.767 127.312M121.985 191.404C117.223 193.589 113.561 198.323 113.194 203.785C112.096 210.34 115.758 216.895 121.618 219.808C116.491 227.092 118.322 237.288 125.647 242.386C127.845 243.843 130.775 244.935 133.339 245.299C132.24 249.305 132.607 253.311 134.438 256.953C137.368 263.143 143.961 266.785 150.554 265.692C150.554 267.877 151.286 270.062 152.019 272.247C155.315 279.895 164.106 283.172 171.431 279.895C171.797 279.53 172.53 279.166 172.896 278.802C176.193 285.721 184.617 288.999 191.942 285.721C195.605 283.9 199.634 279.895 200.366 275.889C201.465 279.895 204.029 283.536 207.692 285.357C215.017 288.27 223.441 285.357 226.738 278.438C227.104 278.802 227.836 279.166 228.203 279.53C235.528 282.808 244.319 279.53 247.615 271.883C248.347 269.698 249.08 267.513 249.08 265.328M121.985 191.404C121.985 191.404 138.833 202.329 143.961 185.942M169.233 127.312C177.291 132.41 180.221 142.607 175.826 150.982M121.252 219.808C121.252 219.808 138.833 204.514 147.257 225.271M150.92 265.328C158.978 264.964 165.204 258.409 165.204 250.398C165.204 249.305 165.204 248.577 164.838 247.484M230.767 127.312C235.894 124.399 242.121 124.763 247.249 128.04C252.743 131.318 255.307 137.508 254.208 143.699C258.237 142.971 262.266 144.063 265.562 146.248C272.521 150.254 275.085 159.358 271.056 166.277C275.451 168.098 278.748 171.375 280.213 175.745C282.41 180.843 281.312 186.67 278.015 191.04C282.777 193.225 286.439 197.959 286.806 203.421C287.904 209.976 284.242 216.531 278.382 219.444C283.509 226.727 281.678 236.924 274.353 242.022C272.155 243.479 269.225 244.571 266.661 244.935C267.76 248.941 267.393 252.947 265.562 256.588C262.632 262.779 256.039 266.421 249.08 265.328M230.767 127.312C222.709 132.41 219.779 142.607 224.174 150.982M249.08 265.328C241.022 264.964 234.796 258.409 234.796 250.398C234.796 249.305 234.796 248.577 235.162 247.484M278.015 191.404C278.015 191.404 261.167 202.329 256.039 185.942M278.748 219.808C278.748 219.808 261.167 204.514 252.743 225.271" stroke="#2C2C34" stroke-width="3" stroke-linecap="round" stroke-linejoin="round"/>
<path d="M211.542 178.072L214.671 174.944C217.262 172.352 221.465 172.352 224.056 174.944C226.648 177.536 226.648 181.738 224.056 184.329L220.928 187.458M211.542 178.072L177.741 211.873C177.34 212.274 177.056 212.776 176.919 213.326L174 225L185.673 222.082C186.223 221.944 186.726 221.66 187.127 221.259L220.928 187.458M211.542 178.072L220.928 187.458L211.542 178.072Z" fill="white"/>
<path d="M211.542 178.072L214.671 174.944C217.262 172.352 221.465 172.352 224.056 174.944C226.648 177.536 226.648 181.738 224.056 184.329L220.928 187.458M211.542 178.072L177.741 211.873C177.34 212.274 177.056 212.776 176.919 213.326L174 225L185.673 222.082C186.223 221.944 186.726 221.66 187.127 221.259L220.928 187.458M211.542 178.072L220.928 187.458" stroke="#2C2C34" stroke-width="2" stroke-linecap="round" stroke-linejoin="round"/>
<path d="M194 329H205M194 330H203M194 331H201" stroke="#2C2C34" stroke-width="0.5" stroke-linecap="round" stroke-linejoin="round"/>
<path d="M194 68H205M194 69H203M194 70H201" stroke="#2C2C34" stroke-width="0.5" stroke-linecap="round" stroke-linejoin="round"/>
<path d="M57 209H68M57 210H66M57 211H64" stroke="#2C2C34" stroke-width="0.5" stroke-linecap="round" stroke-linejoin="round"/>
<path d="M327 209H338M327 210H336M327 211H334" stroke="#2C2C34" stroke-width="0.5" stroke-linecap="round" stroke-linejoin="round"/>
<path d="M312 110H323M312 111H321M312 112H319" stroke="#2C2C34" stroke-width="0.5" stroke-linecap="round" stroke-linejoin="round"/>
<path d="M77 110H88M77 111H86M77 112H84" stroke="#2C2C34" stroke-width="0.5" stroke-linecap="round" stroke-linejoin="round"/>
<path d="M307 278H318M307 279H316M307 280H314" stroke="#2C2C34" stroke-width="0.5" stroke-linecap="round" stroke-linejoin="round"/>
<path d="M83 277H94M83 278H92M83 279H90" stroke="#2C2C34" stroke-width="0.5" stroke-linecap="round" stroke-linejoin="round"/>
</svg>
